<?xml version="1.0" encoding="UTF-8" standalone="no"?>
<!DOCTYPE svg PUBLIC "-//W3C//DTD SVG 1.1//EN" "http://www.w3.org/Graphics/SVG/1.1/DTD/svg11.dtd">
<svg width="100%" height="100%" viewBox="0 0 15 15" version="1.1" xmlns="http://www.w3.org/2000/svg" xmlns:xlink="http://www.w3.org/1999/xlink" xml:space="preserve" xmlns:serif="http://www.serif.com/" style="fill-rule:evenodd;clip-rule:evenodd;stroke-linejoin:round;stroke-miterlimit:2;">
    <path d="M4.646,6.354L6.793,8.5L4.646,10.646L5.354,11.354L7.5,9.207L9.646,11.354L10.354,10.646L8.207,8.5L10.354,6.354L9.646,5.646L7.5,7.793L5.354,5.646L4.646,6.354ZM4,5L0,2.5L4,0L4,2L7.5,2C11.09,2 14,4.91 14,8.5C14,12.09 11.09,15 7.5,15C4.078,15 1.274,12.356 1.019,9L2.022,9C2.275,11.803 4.631,14 7.5,14C10.538,14 13,11.538 13,8.5C13,5.462 10.538,3 7.5,3L4,3L4,5Z" style="fill:white;"/>
</svg>
